<svg xmlns="http://www.w3.org/2000/svg" version="1.1" xmlns:xlink="http://www.w3.org/1999/xlink" width="1500" height="1500" viewBox="0 0 1500 1500"><rect width="1500" height="1500" x="0" y="0" id="background" stroke="transparent" fill="#ffffff"></rect><svg xml:space="preserve" width="1000" height="1000" data-version="2" data-id="lg_urrxcAPBXufCHI4t4g" viewBox="0 0 573 100" x="250" y="250"><rect width="100%" height="100%" fill="transparent"></rect><path fill="#244c6c" d="M158.69 80.318h-4.75q-.97 0-1.6-.63-.63-.63-.63-1.6v-63.34q0-1.06.63-1.7.63-.63 1.6-.63h4.85q1.16 0 1.75.59.58.58.77.97l20.47 39.18 20.66-39.18q.19-.39.73-.97.53-.59 1.7-.59h4.75q1.07 0 1.7.63.63.64.63 1.7v63.34q0 .97-.63 1.6-.63.63-1.7.63h-4.75q-.97 0-1.6-.63-.64-.63-.64-1.6v-47.72l-16.19 31.62q-.39.97-1.17 1.5-.77.54-1.94.54h-3.01q-1.26 0-1.94-.54-.67-.53-1.16-1.5l-16.3-31.62v47.72q0 .97-.63 1.6-.63.63-1.6.63m88.95.97q-10.09 0-16-6.16-5.92-6.15-6.5-16.82-.1-1.27-.1-3.25 0-1.99.1-3.25.39-6.89 3.2-12.08t7.71-8q4.9-2.82 11.5-2.82 7.37 0 12.36 3.11 5 3.1 7.62 8.83 2.62 5.72 2.62 13.38v1.65q0 1.07-.63 1.65-.63.58-1.6.58h-33.57v.87q.2 3.98 1.75 7.42 1.55 3.45 4.51 5.58 2.96 2.14 6.94 2.14 3.49 0 5.82-1.07 2.32-1.07 3.78-2.38 1.45-1.31 1.94-2.08.87-1.17 1.36-1.41.48-.24 1.55-.24h4.75q.87 0 1.51.53.63.54.53 1.51-.1 1.45-1.55 3.54-1.46 2.08-4.13 4.12-2.66 2.04-6.59 3.34-3.93 1.31-8.88 1.31m-13.29-30.16v.29h26.58v-.29q0-4.37-1.6-7.76-1.6-3.4-4.61-5.39-3-1.98-7.17-1.98-4.18 0-7.13 1.98-2.96 1.99-4.51 5.39-1.56 3.39-1.56 7.76m65.87 30.16q-5.34 0-9.22-1.89-3.88-1.89-6.35-5.14-2.48-3.25-3.69-7.42t-1.4-8.83q-.1-1.55-.1-2.91 0-1.35.1-2.91.19-4.55 1.4-8.73 1.21-4.17 3.69-7.46 2.47-3.3 6.35-5.19 3.88-1.9 9.22-1.9 5.72 0 9.5 2.04 3.79 2.04 6.21 5.05v-22.31q0-.97.63-1.61.63-.63 1.6-.63h4.66q.97 0 1.6.63.63.64.63 1.61v64.4q0 .97-.63 1.6-.63.63-1.6.63h-4.37q-1.06 0-1.65-.63-.58-.63-.58-1.6v-4.07q-2.42 3.1-6.3 5.19-3.88 2.08-9.7 2.08m2.03-7.85q4.85 0 7.76-2.23t4.37-5.68q1.45-3.44 1.55-7.03.1-1.55.1-3.74 0-2.18-.1-3.73-.1-3.39-1.6-6.69-1.5-3.3-4.46-5.43-2.96-2.14-7.62-2.14-4.94 0-7.85 2.18-2.91 2.19-4.17 5.73-1.27 3.54-1.46 7.61-.1 2.81 0 5.63.19 4.07 1.46 7.61 1.26 3.54 4.17 5.72 2.91 2.19 7.85 2.19m44.14 6.88h-4.66q-.97 0-1.6-.63-.63-.63-.63-1.6v-45.97q0-.97.63-1.61.63-.63 1.6-.63h4.66q.97 0 1.6.63.63.64.63 1.61v45.97q0 .97-.63 1.6-.63.63-1.6.63m.68-59.84h-6.11q-.97 0-1.6-.64-.63-.63-.63-1.6v-5.23q0-.97.63-1.65.63-.68 1.6-.68h6.11q.97 0 1.65.68.68.68.68 1.65v5.23q0 .97-.68 1.6-.68.64-1.65.64m33.37 60.81q-5.44 0-9.32-1.35-3.88-1.36-6.3-3.3-2.43-1.94-3.64-3.88t-1.31-3.11q-.1-1.06.68-1.64.78-.59 1.55-.59h4.37q.48 0 .82.15.34.14.92.82 1.26 1.36 2.82 2.72 1.55 1.36 3.83 2.23 2.28.87 5.67.87 4.95 0 8.15-1.89t3.2-5.58q0-2.42-1.31-3.88-1.31-1.45-4.65-2.61-3.35-1.17-9.17-2.43-5.82-1.36-9.22-3.35-3.39-1.98-4.85-4.75-1.45-2.76-1.45-6.26 0-3.58 2.13-6.93 2.14-3.35 6.26-5.48 4.12-2.14 10.33-2.14 5.04 0 8.63 1.27 3.59 1.26 5.92 3.15t3.49 3.73q1.17 1.85 1.26 3.11.1.97-.58 1.6-.68.63-1.55.63h-4.07q-.68 0-1.12-.29-.44-.29-.82-.68-.97-1.26-2.28-2.52-1.31-1.27-3.4-2.09-2.08-.82-5.48-.82-4.85 0-7.27 2.03-2.43 2.04-2.43 5.14 0 1.85 1.07 3.3 1.06 1.46 4.07 2.62 3.01 1.16 8.93 2.52 6.4 1.26 10.08 3.4 3.69 2.13 5.24 4.94 1.55 2.82 1.55 6.5 0 4.08-2.32 7.47-2.33 3.4-6.99 5.39-4.65 1.98-11.44 1.98m45.39 17.46h-4.56q-.77 0-1.36-.58-.58-.58-.58-1.36 0-.38.1-.77t.39-.97l7.47-17.75-18.53-43.75q-.49-1.16-.49-1.65 0-.87.59-1.45.58-.59 1.45-.59h4.75q1.07 0 1.61.49.53.48.72 1.16l14.75 35.31 15.13-35.31q.29-.68.82-1.16.54-.49 1.6-.49h4.56q.88 0 1.46.59.58.58.58 1.35 0 .49-.49 1.75l-27.54 63.54q-.29.67-.83 1.16-.53.48-1.6.48m47.24-18.43h-4.85q-.97 0-1.6-.63-.63-.63-.63-1.6v-45.97q0-.97.63-1.61.63-.63 1.6-.63h4.56q.97 0 1.6.63.63.64.63 1.61v4.26q2.52-3.29 6.35-5.38 3.84-2.09 9.85-2.09 6.3 0 10.72 2.77 4.41 2.76 6.69 7.66 2.28 4.9 2.28 11.4v27.35q0 .97-.63 1.6-.63.63-1.6.63h-4.85q-.97 0-1.6-.63-.63-.63-.63-1.6v-26.87q0-6.79-3.3-10.62-3.3-3.83-9.7-3.83-6.01 0-9.65 3.83-3.64 3.83-3.64 10.62v26.87q0 .97-.63 1.6-.63.63-1.6.63m72.07.97q-6.89 0-11.88-2.66-5-2.67-7.71-7.67-2.72-4.99-2.91-11.98-.1-1.45-.1-3.88 0-2.42.1-3.88.19-6.98 2.91-11.98 2.71-4.99 7.71-7.66 4.99-2.67 11.88-2.67 5.63 0 9.65 1.56 4.03 1.55 6.65 3.97 2.62 2.43 3.93 5.24t1.4 5.34q.1.97-.58 1.55-.68.58-1.65.58h-4.65q-.97 0-1.46-.44-.48-.43-.97-1.5-1.75-4.75-4.75-6.69-3.01-1.94-7.47-1.94-5.82 0-9.46 3.59-3.64 3.59-3.93 11.54-.09 3.49 0 6.79.29 8.05 3.93 11.59 3.64 3.54 9.46 3.54 4.46 0 7.47-1.94 3-1.94 4.75-6.69.49-1.07.97-1.55.49-.49 1.46-.49h4.65q.97 0 1.65.63.68.63.58 1.6-.09 2.04-.87 4.17-.78 2.14-2.47 4.32-1.7 2.18-4.22 3.88-2.53 1.7-6.02 2.72-3.49 1.01-8.05 1.01M94.432 50.521c-2.89-4.061-9.187-.058-15.842 4.177a87.402 85.096 0 0 1-5.552 3.298q1.063.406 1.748.919a6.555 6.382 0 0 1 2.642 4.931c.15 4.207-3.397 6.363-6.883 7.93-3.446 1.537-8.968 1.702-13.845 1.856l-2.92.097c-4.767.222-8.303 1.509-8.343 1.518a1.38 1.344 0 0 1-.973-2.504 31.782 30.944 0 0 1 9.197-1.683q1.42-.068 2.95-.097c4.618-.145 9.842-.31 12.792-1.624 3.874-1.74 5.363-3.25 5.274-5.396a3.774 3.675 0 0 0-1.53-2.882c-.824-.6-2.274-1.14-4.668-.967q-1.5.522-2.85.745c-7.449 1.112-13.905.483-19.695-2.553q-.676-.367-1.689-.967c-5.67-3.384-18.97-11.304-31.742 1.131l-6.059 5.947c-.496.484-.784 1.354-.685 2.031l1.827 12.155 1.103 7.369c.198 1.276.854 1.663 1.241 1.78q.15.057.427.057c.418 0 .994-.164 1.63-.822.02-.02 1.876-1.924 4.071-3.607 2.781-2.127 5.185-3.171 7.36-3.171 3.327 0 7.687 1.856 12.306 3.829 5.502 2.35 11.73 5 17.48 5 18.046 0 33.163-15.889 38.914-26.564 2.91-5.396 3.774-9.864 2.304-11.923m-52.67-1.77h31.276a4.231 4.12 0 0 0 4.221-4.12v-30.45a4.231 4.12 0 0 0-4.22-4.11H41.742a4.231 4.12 0 0 0-4.222 4.11v30.46a4.231 4.12 0 0 0 4.231 4.11m3.477-23.43a.81.81 0 0 1 .814-.803h6.317v-6.15c0-.445.367-.803.824-.803h8.403c.457 0 .824.358.824.803v6.15h6.317c.447 0 .824.358.824.803v8.18a.818.818 0 0 1-.824.803H62.41v6.14a.812.812 0 0 1-.824.803h-8.403a.824.803 0 0 1-.824-.802v-6.14h-6.317a.824.803 0 0 1-.824-.804z"></path><path fill="#244c6c" stroke="#244c6c" stroke-width="6" d="M120.956.811v92.462"></path></svg></svg>